<?xml version="1.0" encoding="UTF-8"?>
<svg xmlns="http://www.w3.org/2000/svg" xmlns:xlink="http://www.w3.org/1999/xlink" width="50px" height="50px" viewBox="0 0 50 50" version="1.1">
<g id="surface1">
<path style=" stroke:none;fill-rule:nonzero;fill:rgb(0%,0%,0%);fill-opacity:1;" d="M 25 0 C 11.191406 0 0 11.191406 0 25 C 0 38.808594 11.191406 50 25 50 C 38.808594 50 50 38.808594 50 25 C 50 11.191406 38.808594 0 25 0 Z M 25 46.09375 C 13.351562 46.09375 3.90625 36.648438 3.90625 25 C 3.90625 13.351562 13.351562 3.90625 25 3.90625 C 36.648438 3.90625 46.09375 13.351562 46.09375 25 C 46.09375 36.648438 36.648438 46.09375 25 46.09375 Z M 25 46.09375 "/>
<path style=" stroke:none;fill-rule:nonzero;fill:rgb(0%,0%,0%);fill-opacity:1;" d="M 30.84375 19.371094 C 30.859375 19.261719 30.867188 19.160156 30.867188 19.070312 C 30.867188 18.210938 30.332031 17.78125 29.257812 17.78125 C 28.742188 17.78125 28.394531 17.871094 28.214844 18.046875 C 28.03125 18.222656 27.90625 18.570312 27.832031 19.09375 C 27.421875 18.515625 27.003906 18.125 26.585938 17.921875 C 26.203125 17.738281 25.652344 17.644531 24.9375 17.644531 C 23.101562 17.644531 21.511719 18.578125 20.167969 20.445312 C 18.925781 22.160156 18.308594 23.996094 18.308594 25.945312 C 18.308594 27.46875 18.710938 28.804688 19.515625 29.960938 C 20.40625 31.230469 21.570312 31.863281 23.007812 31.863281 C 24.238281 31.863281 25.417969 31.425781 26.550781 30.542969 C 27.058594 31.425781 27.929688 31.863281 29.160156 31.863281 C 31.488281 31.863281 33.484375 30.882812 35.136719 28.914062 C 36.710938 27.042969 37.5 24.894531 37.5 22.464844 C 37.5 19.558594 36.277344 17.136719 33.832031 15.195312 C 31.570312 13.398438 28.980469 12.5 26.058594 12.5 C 22.257812 12.5 19.070312 13.699219 16.488281 16.105469 C 13.828125 18.582031 12.5 21.742188 12.5 25.59375 C 12.5 29.523438 13.863281 32.542969 16.585938 34.652344 C 19.027344 36.550781 22.234375 37.5 26.207031 37.5 C 27.894531 37.5 29.542969 37.234375 31.152344 36.703125 C 32.917969 36.125 34.367188 35.304688 35.507812 34.234375 C 35.875 33.882812 36.230469 33.453125 36.566406 32.949219 C 36.984375 32.335938 37.191406 31.839844 37.191406 31.460938 C 37.191406 31.175781 37.09375 30.921875 36.890625 30.699219 C 36.691406 30.476562 36.449219 30.363281 36.171875 30.363281 C 35.644531 30.363281 35.203125 30.550781 34.84375 30.917969 C 34.246094 31.558594 33.800781 32.046875 33.515625 32.382812 C 31.5625 34.089844 29.136719 34.941406 26.230469 34.941406 C 23.113281 34.941406 20.621094 34.175781 18.75 32.648438 C 16.707031 30.976562 15.6875 28.582031 15.6875 25.46875 C 15.6875 22.441406 16.65625 19.914062 18.605469 17.886719 C 20.546875 15.859375 22.996094 14.84375 25.949219 14.84375 C 28.269531 14.84375 30.199219 15.503906 31.742188 16.824219 C 33.390625 18.226562 34.214844 20.089844 34.214844 22.414062 C 34.214844 23.632812 34.007812 24.769531 33.585938 25.816406 C 33.121094 26.992188 32.441406 27.898438 31.558594 28.535156 C 30.894531 29.015625 30.371094 29.253906 29.996094 29.253906 C 29.585938 29.253906 29.378906 29.0625 29.378906 28.675781 C 29.378906 28.515625 29.484375 27.777344 29.699219 26.457031 Z M 26.109375 26.324219 C 25.351562 28.421875 24.546875 29.46875 23.695312 29.46875 C 22.425781 29.46875 21.789062 28.65625 21.789062 27.03125 C 21.789062 25.769531 22.152344 24.351562 22.886719 22.765625 C 23.738281 20.898438 24.707031 19.964844 25.800781 19.964844 C 26.25 19.964844 26.585938 20.207031 26.808594 20.695312 C 26.988281 21.066406 27.078125 21.507812 27.078125 22.023438 C 27.078125 23.117188 26.757812 24.550781 26.109375 26.324219 Z M 26.109375 26.324219 "/>
</g>
</svg>
