<?xml version="1.0" standalone="no"?>
<!DOCTYPE svg PUBLIC "-//W3C//DTD SVG 1.0//EN" "http://www.w3.org/TR/2001/REC-SVG-20010904/DTD/svg10.dtd">
<svg xmlns="http://www.w3.org/2000/svg" xmlns:xlink="http://www.w3.org/1999/xlink" id="body_1" width="50" height="50">

<g transform="matrix(0.114012346 0 0 0.114012346 0 0)">
	<g>
        <path d="M409.132 114.573C 389.524 80.977 362.927 54.378998 329.33398 34.772995C 295.736 15.166 259.057 5.365 219.271 5.365C 179.48999 5.365 142.799 15.169 109.20799 34.773003C 75.61199 54.378002 49.01599 80.977005 29.40799 114.573006C 9.803 148.168 0 184.854 0 224.63C 0 272.41 13.94 315.375 41.827 353.536C 69.711 391.7 105.733 418.108 149.89 432.763C 155.03 433.717 158.83499 433.046 161.309 430.767C 163.78401 428.485 165.02 425.62698 165.02 422.205C 165.02 421.63397 164.97101 416.49698 164.876 406.788C 164.778 397.07898 164.73201 388.609 164.73201 381.382L164.73201 381.382L158.16501 382.51797C 153.97801 383.28497 148.69601 383.61 142.31902 383.51797C 135.94502 383.429 129.32802 382.761 122.47702 381.51898C 115.62302 380.288 109.24802 377.43298 103.34702 372.96C 97.44902 368.487 93.262024 362.632 90.787025 355.404L90.787025 355.404L87.93202 348.83398C 86.02902 344.46 83.03302 339.60098 78.940025 334.275C 74.84702 328.944 70.70802 325.33 66.52103 323.427L66.52103 323.427L64.522026 321.996C 63.190025 321.045 61.954025 319.898 60.811028 318.56702C 59.66903 317.23602 58.814026 315.90402 58.243027 314.57C 57.67103 313.23502 58.145027 312.14 59.67003 311.281C 61.19503 310.422 63.951027 310.005 67.95003 310.005L67.95003 310.005L73.65803 310.858C 77.46503 311.621 82.17403 313.9 87.79103 317.709C 93.40503 321.515 98.020035 326.463 101.63703 332.55103C 106.01703 340.35703 111.29403 346.30502 117.48303 350.398C 123.66703 354.491 129.90204 356.534 136.18204 356.534C 142.46204 356.534 147.88603 356.05798 152.45604 355.111C 157.02104 354.159 161.30405 352.728 165.30304 350.826C 167.01604 338.068 171.68004 328.267 179.29105 321.416C 168.44305 320.27597 158.69005 318.559 150.02704 316.27597C 141.36903 313.98996 132.42204 310.27997 123.19204 305.13596C 113.95704 299.99896 106.296036 293.61996 100.20704 286.00995C 94.117035 278.39594 89.11904 268.39996 85.22004 256.03094C 81.31904 243.65695 79.36804 229.38295 79.36804 213.20494C 79.36804 190.16994 86.88804 170.56793 101.92504 154.38794C 94.88104 137.06995 95.54604 117.655945 103.92204 96.147934C 109.44204 94.43294 117.628044 95.71993 128.47604 100.00093C 139.32605 104.28393 147.27005 107.952934 152.31604 110.994934C 157.36205 114.035934 161.40504 116.61293 164.45103 118.702934C 182.15604 113.755936 200.42703 111.28194 219.26904 111.28194C 238.11105 111.28194 256.38605 113.755936 274.09204 118.702934L274.09204 118.702934L284.94104 111.853935C 292.36005 107.283936 301.12103 103.09593 311.20303 99.28893C 321.29105 95.48393 329.00504 94.435936 334.33704 96.15093C 342.89905 117.659935 343.66205 137.07294 336.61603 154.39093C 351.65204 170.57092 359.17502 190.17793 359.17502 213.20793C 359.17502 229.38593 357.217 243.70493 353.32202 256.17392C 349.42203 268.64493 344.381 278.63092 338.19702 286.15292C 332.006 293.67392 324.29602 300.00293 315.066 305.13892C 305.834 310.27893 296.884 313.98892 288.226 316.2749C 279.56403 318.5609 269.811 320.2789 258.963 321.4209C 268.85703 329.9829 273.80502 343.4979 273.80502 361.9599L273.80502 361.9599L273.80502 422.1969C 273.80502 425.6189 274.99503 428.4759 277.377 430.7589C 279.756 433.0379 283.513 433.70892 288.653 432.7539C 332.816 418.1009 368.838 391.6919 396.721 353.5279C 424.601 315.36688 438.54602 272.4019 438.54602 224.62189C 438.536 184.851 428.728 148.168 409.132 114.573z" stroke="none" fill="#000000" fill-rule="nonzero" />
	</g>
	<g>
	</g>
	<g>
	</g>
	<g>
	</g>
	<g>
	</g>
	<g>
	</g>
	<g>
	</g>
	<g>
	</g>
	<g>
	</g>
	<g>
	</g>
	<g>
	</g>
	<g>
	</g>
	<g>
	</g>
	<g>
	</g>
	<g>
	</g>
	<g>
	</g>
</g>
</svg>