<?xml version="1.0" encoding="UTF-8"?>
<svg xmlns="http://www.w3.org/2000/svg" xmlns:xlink="http://www.w3.org/1999/xlink" width="50px" height="50px" viewBox="0 0 50 50" version="1.1">
<g id="surface1">
<path style=" stroke:none;fill-rule:nonzero;fill:rgb(0%,0%,0%);fill-opacity:1;" d="M 49.550781 25 C 49.550781 38.558594 38.558594 49.550781 25 49.550781 C 11.441406 49.550781 0.449219 38.558594 0.449219 25 C 0.449219 11.441406 11.441406 0.449219 25 0.449219 C 38.558594 0.449219 49.550781 11.441406 49.550781 25 Z M 49.550781 25 "/>
<path style=" stroke:none;fill-rule:nonzero;fill:rgb(100%,100%,100%);fill-opacity:1;" d="M 12.816406 20.824219 L 18.175781 20.824219 L 18.175781 36.949219 L 12.816406 36.949219 Z M 12.816406 20.824219 "/>
<path style=" stroke:none;fill-rule:nonzero;fill:rgb(100%,100%,100%);fill-opacity:1;" d="M 15.53125 13.050781 C 13.699219 13.050781 12.5 14.257812 12.5 15.835938 C 12.5 17.382812 13.660156 18.625 15.460938 18.625 L 15.496094 18.625 C 17.363281 18.625 18.527344 17.382812 18.527344 15.835938 C 18.492188 14.257812 17.363281 13.050781 15.53125 13.050781 Z M 15.53125 13.050781 "/>
<path style=" stroke:none;fill-rule:nonzero;fill:rgb(100%,100%,100%);fill-opacity:1;" d="M 31.328125 20.445312 C 28.488281 20.445312 27.214844 22.011719 26.5 23.109375 L 26.5 20.824219 L 21.140625 20.824219 C 21.210938 22.339844 21.140625 36.949219 21.140625 36.949219 L 26.5 36.949219 L 26.5 27.945312 C 26.5 27.460938 26.535156 26.980469 26.675781 26.636719 C 27.0625 25.671875 27.945312 24.675781 29.425781 24.675781 C 31.363281 24.675781 32.140625 26.15625 32.140625 28.320312 L 32.140625 36.949219 L 37.5 36.949219 L 37.5 27.703125 C 37.5 22.75 34.855469 20.445312 31.328125 20.445312 Z M 31.328125 20.445312 "/>
</g>
</svg>
