<?xml version="1.0" encoding="UTF-8"?>
<svg xmlns="http://www.w3.org/2000/svg" xmlns:xlink="http://www.w3.org/1999/xlink" width="50px" height="50px" viewBox="0 0 50 50" version="1.1">
<g id="surface1">
<path style=" stroke:none;fill-rule:nonzero;fill:rgb(0%,0%,0%);fill-opacity:1;" d="M 25.011719 0 C 11.199219 0 0 11.199219 0 25.011719 C 0 38.824219 11.199219 50.023438 25.011719 50.023438 C 38.824219 50.023438 50.023438 38.824219 50.023438 25.011719 C 50.023438 11.199219 38.824219 0 25.011719 0 Z M 38.21875 36.492188 L 36.214844 38.496094 C 35.859375 38.855469 34.8125 39.078125 34.777344 39.078125 C 28.441406 39.132812 22.34375 36.644531 17.859375 32.160156 C 13.367188 27.664062 10.875 21.542969 10.941406 15.1875 C 10.941406 15.183594 11.171875 14.167969 11.527344 13.8125 L 13.53125 11.808594 C 14.265625 11.074219 15.671875 10.742188 16.65625 11.070312 L 17.078125 11.210938 C 18.0625 11.539062 19.09375 12.628906 19.367188 13.628906 L 20.375 17.328125 C 20.644531 18.332031 20.277344 19.761719 19.546875 20.492188 L 18.207031 21.832031 C 19.523438 26.691406 23.335938 30.503906 28.195312 31.820312 L 29.53125 30.484375 C 30.269531 29.746094 31.695312 29.378906 32.699219 29.652344 L 36.394531 30.664062 C 37.398438 30.9375 38.484375 31.964844 38.8125 32.945312 L 38.953125 33.375 C 39.28125 34.355469 38.949219 35.765625 38.21875 36.492188 Z M 38.21875 36.492188 "/>
</g>
</svg>
