<?xml version="1.0" encoding="UTF-8"?>
<svg xmlns="http://www.w3.org/2000/svg" xmlns:xlink="http://www.w3.org/1999/xlink" width="50px" height="50px" viewBox="0 0 50 50" version="1.1">
<g id="surface1">
<path style=" stroke:none;fill-rule:nonzero;fill:rgb(0%,0%,0%);fill-opacity:1;" d="M 25 0.78125 C 11.621094 0.78125 0.78125 11.621094 0.78125 25 C 0.78125 38.378906 11.621094 49.21875 25 49.21875 C 38.378906 49.21875 49.21875 38.378906 49.21875 25 C 49.21875 11.621094 38.378906 0.78125 25 0.78125 Z M 36.894531 17.375 L 32.921875 36.105469 C 32.625 37.433594 31.835938 37.753906 30.734375 37.128906 L 24.679688 32.667969 L 21.757812 35.480469 C 21.4375 35.800781 21.164062 36.074219 20.539062 36.074219 L 20.96875 29.914062 L 32.1875 19.773438 C 32.675781 19.34375 32.078125 19.101562 31.433594 19.53125 L 17.566406 28.261719 L 11.589844 26.394531 C 10.292969 25.984375 10.261719 25.097656 11.863281 24.472656 L 35.214844 15.46875 C 36.296875 15.078125 37.246094 15.730469 36.894531 17.371094 Z M 36.894531 17.375 "/>
</g>
</svg>
